<svg xmlns="http://www.w3.org/2000/svg" viewBox="0 0 128 128" width="128" height="128">
  <defs>
    <linearGradient id="bg" x1="0" y1="0" x2="0" y2="1">
      <stop offset="0%" stop-color="#f1953f"/>
      <stop offset="100%" stop-color="#d06e20"/>
    </linearGradient>
    <linearGradient id="docShade" x1="0" y1="0" x2="0" y2="1">
      <stop offset="0%" stop-color="#ffffff"/>
      <stop offset="100%" stop-color="#f0f1f5"/>
    </linearGradient>
  </defs>

  <rect x="0" y="0" width="128" height="128" rx="24" ry="24" fill="url(#bg)"/>

  <!-- White document -->
  <g>
    <rect x="26" y="20" width="76" height="88" rx="6" ry="6" fill="url(#docShade)"/>
    <path d="M 88 20 L 102 20 L 102 34 Z" fill="#d4c0a8"/>
    <path d="M 88 20 L 88 34 L 102 34 Z" fill="#e8dcc8"/>
  </g>

  <!-- Text lines -->
  <g fill="#d0c8bc">
    <rect x="36" y="48" width="38" height="4" rx="2"/>
    <rect x="36" y="58" width="46" height="4" rx="2"/>
    <rect x="36" y="68" width="28" height="4" rx="2"/>
  </g>

  <!-- # mark -->
  <g fill="#55b981" transform="translate(74, 68)">
    <rect x="0"  y="0"  width="8" height="42" rx="2"/>
    <rect x="22" y="0" width="8" height="42" rx="2"/>
    <rect x="-4" y="8"  width="38" height="8" rx="2"/>
    <rect x="-4" y="28" width="38" height="8" rx="2"/>
  </g>
</svg>
