<svg xmlns="http://www.w3.org/2000/svg" viewBox="0 0 32 32" shape-rendering="crispEdges">
  <rect width="32" height="32" fill="#15131f"/>
  <rect x="5" y="6" width="24" height="24" fill="#08060d"/>
  <rect x="3" y="4" width="24" height="24" fill="#ffcc33"/>
  <path d="M3 4h24v2H3zm0 22h24v2H3zM3 4h2v24H3zm22 0h2v24h-2z" fill="#08060d"/>
  <rect x="6" y="7" width="18" height="18" fill="#211c2f"/>
  <path d="M8 9h14v1H8zm0 13h14v1H8zM8 9h1v14H8zm13 0h1v14h-1z" fill="#2e2840"/>
  <rect x="10" y="11" width="8" height="2" fill="#fff3c4"/>
  <rect x="10" y="15" width="8" height="2" fill="#fff3c4"/>
  <rect x="10" y="19" width="8" height="2" fill="#fff3c4"/>
  <rect x="19" y="18" width="2" height="4" fill="#4df06d"/>
  <rect x="8" y="25" width="4" height="2" fill="#59c7ff"/>
  <rect x="13" y="25" width="4" height="2" fill="#4df06d"/>
  <rect x="18" y="25" width="4" height="2" fill="#ff8c42"/>
  <rect x="24" y="9" width="2" height="6" fill="#ff8c42"/>
  <rect x="24" y="17" width="2" height="6" fill="#59c7ff"/>
  <rect x="3" y="3" width="1" height="1" fill="#fff3c4"/>
  <rect x="26" y="3" width="1" height="1" fill="#fff3c4"/>
  <rect x="3" y="27" width="1" height="1" fill="#fff3c4"/>
  <rect x="26" y="27" width="1" height="1" fill="#fff3c4"/>
</svg>
